<svg width="5.5625em !important" height="1.1875em" viewBox="0 0 89 19" fill="none" xmlns="http://www.w3.org/2000/svg">
<path d="M6.74499 18.9595C6.50652 18.9581 6.27189 18.8993 6.06099 18.788C5.85008 18.6768 5.66912 18.5162 5.53345 18.3201C3.01994 14.7313 1.18962 10.7098 0.13426 6.45727C0.0874528 6.26836 0.0783114 6.07209 0.107359 5.87965C0.136407 5.68721 0.203074 5.50237 0.303554 5.3357C0.404034 5.16902 0.536359 5.02377 0.692975 4.90823C0.84959 4.7927 1.02743 4.70914 1.21633 4.66234C1.40524 4.61553 1.60152 4.60639 1.79396 4.63544C1.9864 4.66448 2.17123 4.73115 2.33791 4.83163C2.50458 4.93211 2.64983 5.06443 2.76537 5.22105C2.8809 5.37767 2.96446 5.5555 3.01127 5.74441C3.9779 9.64998 5.6577 13.3434 7.96612 16.6387C8.12148 16.8598 8.21303 17.1195 8.23076 17.3891C8.24849 17.6588 8.19171 17.9282 8.06664 18.1678C7.94157 18.4074 7.75301 18.608 7.5216 18.7476C7.29019 18.8872 7.02484 18.9605 6.75458 18.9595H6.74499Z" fill="#4D4D4D"/>
<path d="M19.0937 18.9595C18.8235 18.9605 18.5581 18.8872 18.3267 18.7476C18.0953 18.608 17.9068 18.4074 17.7817 18.1678C17.6566 17.9282 17.5998 17.6588 17.6176 17.3891C17.6353 17.1194 17.7268 16.8598 17.8822 16.6387C20.1896 13.3463 21.8693 9.65621 22.837 5.75399C22.9316 5.37248 23.1738 5.04414 23.5104 4.84121C23.6771 4.74073 23.8619 4.67407 24.0544 4.64502C24.2468 4.61597 24.4431 4.62511 24.632 4.67192C24.8209 4.71872 24.9987 4.80228 25.1553 4.91782C25.312 5.03335 25.4443 5.1786 25.5448 5.34528C25.6452 5.51195 25.7119 5.69679 25.741 5.88923C25.77 6.08167 25.7609 6.27794 25.7141 6.46685C24.6558 10.72 22.8222 14.7416 20.3053 18.3297C20.1685 18.5241 19.9871 18.6827 19.7763 18.7923C19.5654 18.9019 19.3314 18.9592 19.0937 18.9595Z" fill="#4D4D4D"/>
<path d="M18.0676 13.8672C17.7415 14.0835 17.343 14.1616 16.9594 14.0843C16.5758 14.0069 16.2386 13.7805 16.0217 13.4548L12.9018 8.76848L11.6743 6.9208C11.5164 6.68556 11.4291 6.41002 11.4229 6.12677C11.4167 5.84352 11.4917 5.56441 11.6391 5.32246L11.6743 5.27131L11.7286 5.1914C11.7675 5.14226 11.8092 5.0953 11.8533 5.05074C11.8725 5.03156 11.8948 5.01238 11.914 4.99001L12.0227 4.9037L12.0866 4.85894L12.1793 4.8014L12.2465 4.76624L12.288 4.74706C12.3555 4.71678 12.4249 4.69114 12.4958 4.67034L12.5757 4.65116H12.6397H12.6972C12.8203 4.63516 12.9449 4.63516 13.068 4.65116H13.1256H13.1895L13.2822 4.67354L13.3845 4.7087L13.4708 4.74386L13.5123 4.76304L13.5795 4.79821L13.6722 4.85575L13.7489 4.91009L13.8224 4.97083L13.8768 5.01878L13.9183 5.06353L13.9663 5.11787C13.9882 5.13981 14.0085 5.16332 14.027 5.1882C14.0469 5.21356 14.0651 5.24026 14.0814 5.26812L14.1165 5.31926L16.0793 8.2666V8.28258L18.4224 11.7989C18.5359 11.9577 18.6167 12.1374 18.6602 12.3276C18.7038 12.5178 18.7092 12.7147 18.6762 12.907C18.6433 13.0993 18.5725 13.2832 18.468 13.448C18.3635 13.6128 18.2275 13.7553 18.0676 13.8672Z" fill="url(#paint0_linear_2050_33)"/>
<path d="M1.56637 3.13274C2.43145 3.13274 3.13274 2.43145 3.13274 1.56637C3.13274 0.701288 2.43145 0 1.56637 0C0.701289 0 0 0.701288 0 1.56637C0 2.43145 0.701289 3.13274 1.56637 3.13274Z" fill="#4D4D4D"/>
<path d="M12.9018 3.13274C13.7668 3.13274 14.4681 2.43145 14.4681 1.56637C14.4681 0.701288 13.7668 0 12.9018 0C12.0367 0 11.3354 0.701288 11.3354 1.56637C11.3354 2.43145 12.0367 3.13274 12.9018 3.13274Z" fill="#4D4D4D"/>
<path d="M24.2724 3.13274C25.1374 3.13274 25.8387 2.43145 25.8387 1.56637C25.8387 0.701288 25.1374 0 24.2724 0C23.4073 0 22.706 0.701288 22.706 1.56637C22.706 2.43145 23.4073 3.13274 24.2724 3.13274Z" fill="#4D4D4D"/>
<path d="M16.1273 8.28261C15.6126 7.53458 14.1805 6.95918 12.9018 8.7685C12.9018 8.7685 12.9018 8.78448 12.8826 8.79408L12.8251 8.88358L9.77865 13.4548C9.67805 13.6297 9.54269 13.782 9.38093 13.9026C9.21917 14.0231 9.03443 14.1092 8.83812 14.1555C8.6418 14.2019 8.43807 14.2076 8.23948 14.1722C8.04089 14.1368 7.85166 14.0611 7.68345 13.9498C7.51524 13.8384 7.37162 13.6938 7.26145 13.5248C7.15128 13.3559 7.07689 13.1661 7.04288 12.9673C7.00886 12.7684 7.01594 12.5648 7.06367 12.3688C7.1114 12.1728 7.19878 11.9886 7.32041 11.8277L11.6359 5.34486L11.6711 5.29371L11.7254 5.2138C11.7644 5.16466 11.806 5.1177 11.8501 5.07314C11.8693 5.05396 11.8917 5.03478 11.9108 5.01241L12.0195 4.9261L12.0835 4.88134L12.1762 4.8238L12.2433 4.78864L12.2848 4.76946C12.3523 4.73918 12.4217 4.71354 12.4926 4.69274L12.5725 4.67356H12.6365H12.694C12.8171 4.65756 12.9417 4.65756 13.0648 4.67356H13.1224H13.1863L13.279 4.69594L13.3813 4.7311L13.4676 4.76626L13.5092 4.78544L13.5763 4.82061L13.669 4.87815L13.7457 4.93249L13.8193 4.99323L13.8736 5.04118L13.9152 5.08593L13.9631 5.14027C13.985 5.16221 14.0053 5.18572 14.0238 5.2106C14.0438 5.23596 14.0619 5.26266 14.0782 5.29052L14.1133 5.34166L16.1273 8.28261Z" fill="#4D4D4D"/>
<path d="M31.9516 18.5402C29.0225 18.5402 26.8357 16.2878 26.8357 13.2976C26.8357 11.8801 27.3172 10.5792 28.1999 9.6083C29.1228 8.5986 30.4269 8.05492 31.8513 8.05492C34.7202 8.05492 36.7867 10.2491 36.7867 13.2976C36.7867 13.6277 36.5058 13.9189 36.1447 13.9189H28.1398C28.4206 15.8801 29.9654 17.2975 31.9516 17.2975C33.2958 17.2975 34.4795 16.6762 35.1616 15.55C35.3622 15.2587 35.7434 15.181 36.0444 15.3558C36.3453 15.5306 36.4456 15.9189 36.2651 16.2102C35.3221 17.6859 33.7572 18.5402 31.9516 18.5402ZM28.1398 12.6762H35.4626C35.2218 10.6568 33.8174 9.2782 31.8513 9.2782C29.8852 9.2782 28.4006 10.6762 28.1398 12.6762Z" fill="#4D4D4D"/>
<path d="M42.4725 8.05492C41.2286 8.05492 40.1453 8.52093 39.3628 9.29762V8.65685C39.3628 8.32676 39.082 8.05492 38.7208 8.05492C38.3798 8.05492 38.0989 8.32676 38.0989 8.65685V17.9189C38.0989 18.2684 38.3798 18.5402 38.7208 18.5402C39.082 18.5402 39.3628 18.2684 39.3628 17.9189V12.6762C39.3628 12.6568 39.3628 12.6374 39.3628 12.618V12.5209C39.3628 10.6762 40.707 9.2782 42.4725 9.2782C42.8336 9.2782 43.1145 9.00636 43.1145 8.65685C43.1145 8.32676 42.8336 8.05492 42.4725 8.05492Z" fill="#4D4D4D"/>
<path d="M55.5847 8.05492C54.3609 8.05492 53.2374 8.52093 52.455 9.39471C52.2744 9.58888 52.1139 9.80247 51.9735 10.0355C51.2914 8.81219 50.0676 8.05492 48.603 8.05492C47.4193 8.05492 46.3761 8.4821 45.5936 9.25879V8.65685C45.5936 8.32676 45.2927 8.05492 44.9516 8.05492C44.5905 8.05492 44.3096 8.32676 44.3096 8.65685V17.9189C44.3096 18.2684 44.5905 18.5402 44.9516 18.5402C45.2927 18.5402 45.5936 18.2684 45.5936 17.9189V12.6762C45.5936 12.6568 45.5936 12.6374 45.5936 12.618V12.5209C45.5936 10.6568 46.8576 9.2782 48.603 9.2782C50.1879 9.2782 51.3114 10.618 51.3114 12.5209V17.9189C51.3114 18.2684 51.5923 18.5402 51.9334 18.5402C52.2945 18.5402 52.5754 18.2684 52.5754 17.9189V12.6762C52.5754 12.6568 52.5754 12.6374 52.5754 12.618V12.5209C52.5754 10.6568 53.8393 9.2782 55.5847 9.2782C57.1897 9.2782 58.2932 10.618 58.2932 12.5209V17.9189C58.2932 18.2684 58.5741 18.5402 58.9352 18.5402C59.2963 18.5402 59.5772 18.2684 59.5772 17.9189V12.5209C59.5772 9.93839 57.8919 8.05492 55.5847 8.05492Z" fill="#4D4D4D"/>
<path d="M66.2036 18.5402C63.2143 18.5402 60.7867 16.1907 60.7867 13.2976C60.7867 10.4044 63.2143 8.05492 66.2036 8.05492C69.1929 8.05492 71.6205 10.4044 71.6205 13.2976C71.6205 16.1907 69.1929 18.5402 66.2036 18.5402ZM66.2036 9.2782C63.9165 9.2782 62.0707 11.084 62.0707 13.2976C62.0707 15.5111 63.9165 17.2975 66.2036 17.2975C68.4907 17.2975 70.3365 15.5111 70.3365 13.2976C70.3365 11.084 68.4907 9.2782 66.2036 9.2782Z" fill="#4D4D4D"/>
<path d="M78.5141 16.7927C78.795 17.0063 78.815 17.3946 78.5944 17.6665C78.0928 18.2296 77.3705 18.5402 76.6282 18.5402C75.1837 18.5402 74.0201 17.414 74.0201 16.0354V9.2782H73.4383C73.0972 9.2782 72.8164 9.00636 72.8164 8.65685C72.8164 8.32676 73.0972 8.05492 73.4383 8.05492H74.0201V6.07436C74.0201 5.72484 74.3211 5.453 74.6621 5.453C75.0232 5.453 75.3041 5.72484 75.3041 6.07436V8.05492H77.5712C77.9323 8.05492 78.2132 8.32676 78.2132 8.65685C78.2132 9.00636 77.9323 9.2782 77.5712 9.2782H75.3041V16.0354C75.3041 16.7344 75.906 17.2975 76.6282 17.2975C77.0094 17.2975 77.3705 17.1422 77.6113 16.8509C77.852 16.5985 78.2533 16.5597 78.5141 16.7927Z" fill="#4D4D4D"/>
<path d="M84.165 18.5402C81.2359 18.5402 79.0491 16.2878 79.0491 13.2976C79.0491 11.8801 79.5306 10.5792 80.4133 9.6083C81.3362 8.5986 82.6402 8.05492 84.0647 8.05492C86.9336 8.05492 89 10.2491 89 13.2976C89 13.6277 88.7192 13.9189 88.358 13.9189H80.3531C80.634 15.8801 82.1788 17.2975 84.165 17.2975C85.5092 17.2975 86.6929 16.6762 87.375 15.55C87.5756 15.2587 87.9568 15.181 88.2577 15.3558C88.5587 15.5306 88.659 15.9189 88.4784 16.2102C87.5355 17.6859 85.9706 18.5402 84.165 18.5402ZM80.3531 12.6762H87.6759C87.4352 10.6568 86.0308 9.2782 84.0647 9.2782C82.0985 9.2782 80.6139 10.6762 80.3531 12.6762Z" fill="#4D4D4D"/>
<defs>
<linearGradient id="paint0_linear_2050_33" x1="12.2693" y1="4.90771" x2="17.995" y2="13.3599" gradientUnits="userSpaceOnUse">
<stop stop-color="#0D0D0D"/>
<stop offset="1" stop-color="#333333"/>
</linearGradient>
</defs>
</svg>
